# xmcd
#
# Track frame offsets: 
#        150
#        41825
#        56628
#        71106
#        85491
#        108047
#        120470
#        130870
#        143384
#        154112
#        163891
#        174161
#
# Disc length: 2556 seconds
#
# Revision: 0
# Processed by: cddbd v1.5.2PL0 Copyright (c) Steve Scherf et al.
# Submitted via: ExactAudioCopy v0.99pb5
#
DISCID=9d09fa0c
DTITLE=Mala Junta Trio - Mala Junta Trio
DYEAR=2010
DGENRE=Guitar
TTITLE0=Popurri de Boleros
TTITLE1=De buen humor
TTITLE2=Libertango
TTITLE3=La cumparsita
TTITLE4=Milonga de mis amores
TTITLE5=Minor swing
TTITLE6=Te vere en mis suenos
TTITLE7=Crazy rhythm
TTITLE8=I can't give you anything but love
TTITLE9=Ojos negros
TTITLE10=La marcha Turca
TTITLE11=Zorba el griego
EXTD=
EXTT0=
EXTT1=
EXTT2=
EXTT3=
EXTT4=
EXTT5=
EXTT6=
EXTT7=
EXTT8=
EXTT9=
EXTT10=
EXTT11=
PLAYORDER=
